<?xml version="1.0" standalone="no"?><!-- Generator: Gravit.io --><svg xmlns="http://www.w3.org/2000/svg" xmlns:xlink="http://www.w3.org/1999/xlink" style="isolation:isolate" viewBox="0 0 30 30" width="30" height="30"><clipPath id="_clipPath_VmdAlZx07Ox3O9cQhkIz5s6KIoYq41lv"><rect x="0" y="0" width="30" height="30" transform="matrix(1,0,0,1,0,0)" fill="rgb(255,255,255)"/></clipPath><g clip-path="url(#_clipPath_VmdAlZx07Ox3O9cQhkIz5s6KIoYq41lv)"><path d="M 1.5 21.5 L 28.5 21.5 C 29.328 21.5 30 22.172 30 23 L 30 23 C 30 23.828 29.328 24.5 28.5 24.5 L 1.5 24.5 C 0.672 24.5 0 23.828 0 23 L 0 23 C 0 22.172 0.672 21.5 1.5 21.5 Z" style="stroke:none;fill:#FFFFFF;stroke-miterlimit:10;"/><path d="M 1.5 13.5 L 28.5 13.5 C 29.328 13.5 30 14.172 30 15 L 30 15 C 30 15.828 29.328 16.5 28.5 16.5 L 1.5 16.5 C 0.672 16.5 0 15.828 0 15 L 0 15 C 0 14.172 0.672 13.5 1.5 13.5 Z" style="stroke:none;fill:#FFFFFF;stroke-miterlimit:10;"/><path d="M 28.5 13.5 L 1.5 13.5 C 0.672 13.5 0 14.172 0 15 L 0 15 C 0 15.828 0.672 16.5 1.5 16.5 L 28.5 16.5 C 29.328 16.5 30 15.828 30 15 L 30 15 C 30 14.172 29.328 13.5 28.5 13.5 Z" style="stroke:none;fill:#FFFFFF;stroke-miterlimit:10;"/><path d="M 1.5 5.5 L 28.5 5.5 C 29.328 5.5 30 6.172 30 7 L 30 7 C 30 7.828 29.328 8.5 28.5 8.5 L 1.5 8.5 C 0.672 8.5 0 7.828 0 7 L 0 7 C 0 6.172 0.672 5.5 1.5 5.5 Z" style="stroke:none;fill:#FFFFFF;stroke-miterlimit:10;"/></g></svg>